<?xml version="1.0" standalone="no"?>
<!DOCTYPE svg PUBLIC "-//W3C//DTD SVG 20010904//EN"
 "http://www.w3.org/TR/2001/REC-SVG-20010904/DTD/svg10.dtd">
<svg version="1.0" xmlns="http://www.w3.org/2000/svg"
 width="306.000000pt" height="119.000000pt" viewBox="0 0 306.000000 119.000000"
 preserveAspectRatio="xMidYMid meet">

<g transform="translate(0.000000,119.000000) scale(0.100000,-0.100000)"
fill="#000000" stroke="none">
<path d="M0 595 l0 -595 1530 0 1530 0 0 595 0 595 -1530 0 -1530 0 0 -595z
m1944 48 l96 -193 -195 0 -195 0 29 59 c23 44 38 61 63 71 18 8 34 14 35 15 1
0 -2 18 -7 39 -8 34 -4 48 33 122 23 46 42 82 43 81 1 -1 45 -89 98 -194z
m-1025 -48 c0 -5 -48 40 -109 100 l-110 109 -3 -179 -2 -180 -3 190 -2 189
114 -109 c62 -61 114 -114 115 -120z m204 218 c-7 -2 -19 -2 -25 0 -7 3 -2 5
12 5 14 0 19 -2 13 -5z m395 -76 l81 88 -2 -190 -2 -190 -2 179 -3 179 -25
-23 c-30 -28 -34 -51 -5 -25 20 18 20 18 18 -141 l-2 -159 -6 150 -5 149 -59
-67 c-33 -37 -63 -67 -68 -67 -5 0 -37 30 -71 66 l-62 67 -5 -154 -6 -154 -2
164 -2 165 35 -34 c19 -19 35 -29 35 -24 0 5 -18 27 -40 49 l-40 39 -3 -180
-2 -179 -2 190 -2 190 83 -88 82 -88 82 88z m-448 63 c-13 -8 -13 -10 0 -10
16 0 -27 -33 -47 -36 -17 -3 1 32 25 45 22 13 42 14 22 1z m121 -19 c16 -16
28 -38 28 -48 -1 -17 -2 -17 -6 1 -3 10 -8 15 -12 10 -3 -5 -18 3 -33 19 -15
15 -21 27 -15 27 7 0 6 4 -3 10 -11 7 -12 10 -2 10 8 0 27 -13 43 -29z m911
-146 l-3 -174 73 -4 73 -4 -75 1 -75 1 -3 178 c-1 97 1 177 5 177 5 0 7 -79 5
-175z m176 148 l28 -28 -6 -115 -6 -115 -4 112 c-3 63 -1 109 4 106 5 -3 7 0
4 7 -2 7 -11 14 -20 16 -9 1 -24 7 -35 13 -14 8 -15 11 -3 11 10 1 9 4 -5 10
-17 7 -17 9 -3 9 10 1 30 -11 46 -26z m-1155 10 c-7 -2 -19 -2 -25 0 -7 3 -2
5 12 5 14 0 19 -2 13 -5z m999 -152 l-3 -160 63 -4 63 -3 -67 -2 -68 -2 0 158
c0 131 3 172 14 172 1 0 0 -72 -2 -159z m-1203 -76 c0 -5 -44 35 -99 90 l-99
99 -4 -154 -3 -155 -2 164 -2 165 104 -100 c57 -54 104 -103 105 -109z m99
-30 c3 17 5 16 15 -8 7 -16 23 -35 37 -42 16 -9 19 -15 10 -15 -10 -1 -9 -4 5
-10 18 -8 18 -9 2 -9 -11 -1 -34 14 -53 33 l-34 34 2 114 2 113 6 -115 c3 -63
7 -106 8 -95z m9 93 c-2 -24 -4 -7 -4 37 0 44 2 63 4 43 2 -21 2 -57 0 -80z
m1290 -50 c-2 -29 -3 -6 -3 52 0 58 1 81 3 53 2 -29 2 -77 0 -105z m-1110 20
c-2 -24 -4 -7 -4 37 0 44 2 63 4 43 2 -21 2 -57 0 -80z m3 -94 c-16 -29 -49
-52 -46 -31 3 21 17 38 27 31 6 -3 13 4 16 15 3 12 8 19 11 16 3 -3 -1 -17 -8
-31z m1080 13 c0 -2 -10 -12 -22 -23 l-23 -19 19 23 c18 21 26 27 26 19z m10
-21 c0 -2 -8 -10 -17 -17 -16 -13 -17 -12 -4 4 13 16 21 21 21 13z m-1153 -42
c-3 -3 -12 -4 -19 -1 -8 3 -5 6 6 6 11 1 17 -2 13 -5z"/>
<path d="M1485 690 l-49 -50 -41 38 -40 37 39 -42 c23 -25 44 -39 51 -35 13 8
99 102 93 102 -2 0 -26 -22 -53 -50z"/>
<path d="M1035 779 c-11 -17 1 -21 15 -4 8 9 8 15 2 15 -6 0 -14 -5 -17 -11z"/>
<path d="M1175 770 c10 -11 20 -18 23 -15 7 6 -18 35 -31 35 -5 0 -2 -9 8 -20z"/>
<path d="M2250 786 c0 -2 7 -7 16 -10 8 -3 12 -2 9 4 -6 10 -25 14 -25 6z"/>
<path d="M1020 511 c0 -10 39 -46 43 -40 2 2 -7 14 -20 26 -13 12 -23 19 -23
14z"/>
<path d="M1175 490 c-3 -5 -1 -10 4 -10 6 0 11 5 11 10 0 6 -2 10 -4 10 -3 0
-8 -4 -11 -10z"/>
</g>
</svg>
